<?xml version="1.0" encoding="utf-8"?>
<!-- Generated by Mocodo 4.2.1 -->
<svg width="431" height="332" viewBox="0 0 431 332" xmlns="http://www.w3.org/2000/svg">
<rect x="0" y="0" width="431" height="332" fill="#f7f7f7" stroke="none" stroke-width="0"/>

<!-- Association CONTIENT -->
<g>
	<line x1="205" y1="53" x2="61" y2="53" stroke="#8073ac" stroke-width="1"/>
	<line x1="61" y1="148" x2="61" y2="53" stroke="#8073ac" stroke-width="1"/>
	<g>
		<path d="M91 27 a14 14 90 0 1 14 14 V53 h-88 V41 a14 14 90 0 1 14 -14" fill="#b2abd2" stroke="#b2abd2" stroke-width="0"/>
		<path d="M105 53 v12 a14 14 90 0 1 -14 14 H31 a14 14 90 0 1 -14 -14 V53 H88" fill="#d8daeb" stroke="#d8daeb" stroke-width="0"/>
		<rect x="17" y="27" width="88" height="52" fill="none" rx="14" stroke="#8073ac" stroke-width="1.5"/>
		<line x1="17" y1="53" x2="105" y2="53" stroke="#8073ac" stroke-width="1"/>
		<text x="24" y="45.6" fill="#000000" font-family="Georgia" font-size="14">CONTIENT</text>
	</g>
	<text x="132" y="70" fill="#b35806" font-family="Verdana" font-size="12">0,N</text>
	<text x="66" y="105" fill="#b35806" font-family="Verdana" font-size="12">0,N</text>
</g>

<!-- Association EST_AUTEUR_DE -->
<g>
	<line x1="205" y1="261" x2="205" y2="148" stroke="#8073ac" stroke-width="1"/>
	<line x1="364" y1="148" x2="205" y2="148" stroke="#8073ac" stroke-width="1"/>
	<g>
		<path d="M260 122 a14 14 90 0 1 14 14 V148 h-138 V136 a14 14 90 0 1 14 -14" fill="#b2abd2" stroke="#b2abd2" stroke-width="0"/>
		<path d="M274 148 v12 a14 14 90 0 1 -14 14 H150 a14 14 90 0 1 -14 -14 V148 H138" fill="#d8daeb" stroke="#d8daeb" stroke-width="0"/>
		<rect x="136" y="122" width="138" height="52" fill="none" rx="14" stroke="#8073ac" stroke-width="1.5"/>
		<line x1="136" y1="148" x2="274" y2="148" stroke="#8073ac" stroke-width="1"/>
		<text x="144" y="140.6" fill="#000000" font-family="Georgia" font-size="14">EST_AUTEUR_DE</text>
	</g>
	<text x="210" y="191" fill="#b35806" font-family="Verdana" font-size="12">1,1</text>
	<text x="279" y="165" fill="#b35806" font-family="Verdana" font-size="12">0,N</text>
</g>

<!-- Association APPARTIENT -->
<g>
	<line x1="61" y1="148" x2="61" y2="261" stroke="#8073ac" stroke-width="1"/>
	<line x1="205" y1="261" x2="61" y2="261" stroke="#8073ac" stroke-width="1"/>
	<g>
		<path d="M99 235 a14 14 90 0 1 14 14 V261 h-104 V249 a14 14 90 0 1 14 -14" fill="#b2abd2" stroke="#b2abd2" stroke-width="0"/>
		<path d="M113 261 v12 a14 14 90 0 1 -14 14 H23 a14 14 90 0 1 -14 -14 V261 H104" fill="#d8daeb" stroke="#d8daeb" stroke-width="0"/>
		<rect x="9" y="235" width="104" height="52" fill="none" rx="14" stroke="#8073ac" stroke-width="1.5"/>
		<line x1="9" y1="261" x2="113" y2="261" stroke="#8073ac" stroke-width="1"/>
		<text x="17" y="253.6" fill="#000000" font-family="Georgia" font-size="14">APPARTIENT</text>
	</g>
	<text x="66" y="200" fill="#b35806" font-family="Verdana" font-size="12">1,1</text>
	<text x="118" y="278" fill="#b35806" font-family="Verdana" font-size="12">1,N</text>
</g>

<!-- Association PARTICIPE -->
<g>
	<line x1="205" y1="261" x2="364" y2="261" stroke="#8073ac" stroke-width="1"/>
	<line x1="364" y1="148" x2="364" y2="261" stroke="#8073ac" stroke-width="1"/>
	<g>
		<path d="M395 235 a14 14 90 0 1 14 14 V261 h-90 V249 a14 14 90 0 1 14 -14" fill="#b2abd2" stroke="#b2abd2" stroke-width="0"/>
		<path d="M409 261 v12 a14 14 90 0 1 -14 14 H333 a14 14 90 0 1 -14 -14 V261 H90" fill="#d8daeb" stroke="#d8daeb" stroke-width="0"/>
		<rect x="319" y="235" width="90" height="52" fill="none" rx="14" stroke="#8073ac" stroke-width="1.5"/>
		<line x1="319" y1="261" x2="409" y2="261" stroke="#8073ac" stroke-width="1"/>
		<text x="327" y="253.6" fill="#000000" font-family="Georgia" font-size="14">PARTICIPE</text>
	</g>
	<text x="270" y="278" fill="#b35806" font-family="Verdana" font-size="12">0,N</text>
	<text x="369" y="218" fill="#b35806" font-family="Verdana" font-size="12">0,N</text>
</g>

<!-- Entity BESOIN -->
<g>
	<g>
		<rect x="159" y="9" width="92" height="26" fill="#fdb863" stroke="none" stroke-width="0" opacity="1"/>
		<rect x="159" y="35" width="92" height="62" fill="#fee0b6" stroke="none" stroke-width="0" opacity="1"/>
		<rect x="159" y="9" width="92" height="88" fill="none" stroke="#e08214" stroke-width="1.5" opacity="1"/>
		<line x1="159" y1="35" x2="251" y2="35" stroke="#e08214" stroke-width="1"/>
	</g>
	<text x="184" y="27.6" fill="#000000" font-family="Georgia" font-size="14">Besoin</text>
	<text x="164" y="53.6" fill="#000000" font-family="Georgia" font-size="14">Code_besoin</text>
	<line x1="164" y1="56" x2="246" y2="56" stroke="#000000" stroke-width="1"/>
	<text x="164" y="71.6" fill="#000000" font-family="Georgia" font-size="14">Nom</text>
	<text x="164" y="89.6" fill="#000000" font-family="Georgia" font-size="14">Quantité</text>
</g>

<!-- Entity LISTE -->
<g>
	<g>
		<rect x="22" y="113" width="78" height="26" fill="#fdb863" stroke="none" stroke-width="0" opacity="1"/>
		<rect x="22" y="139" width="78" height="44" fill="#fee0b6" stroke="none" stroke-width="0" opacity="1"/>
		<rect x="22" y="113" width="78" height="70" fill="none" stroke="#e08214" stroke-width="1.5" opacity="1"/>
		<line x1="22" y1="139" x2="100" y2="139" stroke="#e08214" stroke-width="1"/>
	</g>
	<text x="46" y="131.6" fill="#000000" font-family="Georgia" font-size="14">Liste</text>
	<text x="27" y="157.6" fill="#000000" font-family="Georgia" font-size="14">Code_liste</text>
	<line x1="27" y1="160" x2="94" y2="160" stroke="#000000" stroke-width="1"/>
	<text x="27" y="175.6" fill="#000000" font-family="Georgia" font-size="14">Nom</text>
</g>

<!-- Entity UTILISATEUR -->
<g>
	<g>
		<rect x="306" y="95" width="116" height="26" fill="#fdb863" stroke="none" stroke-width="0" opacity="1"/>
		<rect x="306" y="121" width="116" height="80" fill="#fee0b6" stroke="none" stroke-width="0" opacity="1"/>
		<rect x="306" y="95" width="116" height="106" fill="none" stroke="#e08214" stroke-width="1.5" opacity="1"/>
		<line x1="306" y1="121" x2="422" y2="121" stroke="#e08214" stroke-width="1"/>
	</g>
	<text x="331" y="113.6" fill="#000000" font-family="Georgia" font-size="14">Utilisateur</text>
	<text x="311" y="139.6" fill="#000000" font-family="Georgia" font-size="14">Code_utilisateur</text>
	<line x1="311" y1="142" x2="416" y2="142" stroke="#000000" stroke-width="1"/>
	<text x="311" y="157.6" fill="#000000" font-family="Georgia" font-size="14">Email</text>
	<text x="311" y="175.6" fill="#000000" font-family="Georgia" font-size="14">Nom</text>
	<text x="311" y="193.6" fill="#000000" font-family="Georgia" font-size="14">Prenom</text>
</g>

<!-- Entity EVENEMENT -->
<g>
	<g>
		<rect x="145" y="199" width="120" height="26" fill="#fdb863" stroke="none" stroke-width="0" opacity="1"/>
		<rect x="145" y="225" width="120" height="98" fill="#fee0b6" stroke="none" stroke-width="0" opacity="1"/>
		<rect x="145" y="199" width="120" height="124" fill="none" stroke="#e08214" stroke-width="1.5" opacity="1"/>
		<line x1="145" y1="225" x2="265" y2="225" stroke="#e08214" stroke-width="1"/>
	</g>
	<text x="170" y="217.6" fill="#000000" font-family="Georgia" font-size="14">Evenement</text>
	<text x="150" y="243.6" fill="#000000" font-family="Georgia" font-size="14">Code_evenement</text>
	<line x1="150" y1="246" x2="259" y2="246" stroke="#000000" stroke-width="1"/>
	<text x="150" y="261.6" fill="#000000" font-family="Georgia" font-size="14">Nom</text>
	<text x="150" y="279.6" fill="#000000" font-family="Georgia" font-size="14">Lieu</text>
	<text x="150" y="297.6" fill="#000000" font-family="Georgia" font-size="14">Date</text>
	<text x="150" y="315.6" fill="#000000" font-family="Georgia" font-size="14">Description</text>
</g>
</svg>