<?xml version="1.0" encoding="utf-8"?>
<!-- Generated by Mocodo 4.2.1 -->
<svg width="372" height="263" viewBox="0 0 372 263" xmlns="http://www.w3.org/2000/svg">
<rect x="0" y="0" width="372" height="263" fill="#ffffbf" stroke="none" stroke-width="0"/>

<!-- Association APPARTIENT -->
<g>
	<line x1="308" y1="60" x2="166" y2="60" stroke="#66c2a5" stroke-width="2"/>
	<line x1="166" y1="195" x2="166" y2="60" stroke="#66c2a5" stroke-width="2"/>
	<line x1="52" y1="60" x2="166" y2="60" stroke="#66c2a5" stroke-width="2"/>
	<g>
		<path d="M191 35 a14 14 90 0 1 14 14 V60 h-78 V49 a14 14 90 0 1 14 -14" fill="#abdda4" stroke="#abdda4" stroke-width="0"/>
		<path d="M205 60 v11 a14 14 90 0 1 -14 14 H141 a14 14 90 0 1 -14 -14 V60 H78" fill="#e6f598" stroke="#e6f598" stroke-width="0"/>
		<rect x="127" y="35" width="78" height="50" fill="none" rx="14" stroke="#66c2a5" stroke-width="2"/>
		<line x1="127" y1="60" x2="205" y2="60" stroke="#66c2a5" stroke-width="1"/>
		<text x="135" y="52.75" fill="#000000" font-family="Verdana" font-size="12">appartient</text>
	</g>
	<text x="226" y="77" fill="#d53e4f" font-family="Verdana" font-size="12">0,N</text>
	<text x="171" y="128" fill="#d53e4f" font-family="Verdana" font-size="12">0,N</text>
	<text x="100" y="77" fill="#d53e4f" font-family="Verdana" font-size="12">0,N</text>
</g>

<!-- Association EST_AUTEUR_DE -->
<g>
	<line x1="308" y1="60" x2="308" y2="195" stroke="#66c2a5" stroke-width="2"/>
	<line x1="166" y1="195" x2="308" y2="195" stroke="#66c2a5" stroke-width="2"/>
	<g>
		<path d="M346 170 a14 14 90 0 1 14 14 V195 h-104 V184 a14 14 90 0 1 14 -14" fill="#abdda4" stroke="#abdda4" stroke-width="0"/>
		<path d="M360 195 v11 a14 14 90 0 1 -14 14 H270 a14 14 90 0 1 -14 -14 V195 H104" fill="#e6f598" stroke="#e6f598" stroke-width="0"/>
		<rect x="256" y="170" width="104" height="50" fill="none" rx="14" stroke="#66c2a5" stroke-width="2"/>
		<line x1="256" y1="195" x2="360" y2="195" stroke="#66c2a5" stroke-width="1"/>
		<text x="264" y="187.75" fill="#000000" font-family="Verdana" font-size="12">est_auteur_de</text>
	</g>
	<text x="313" y="128" fill="#d53e4f" font-family="Verdana" font-size="12">0,N</text>
	<text x="229" y="212" fill="#d53e4f" font-family="Verdana" font-size="12">1,1</text>
</g>

<!-- Entity ARTICLE -->
<g>
	<g>
		<rect x="9" y="18" width="86" height="25" fill="#fdae61" stroke="none" stroke-width="0" opacity="1"/>
		<rect x="9" y="43" width="86" height="59" fill="#fee08b" stroke="none" stroke-width="0" opacity="1"/>
		<rect x="9" y="18" width="86" height="84" fill="none" stroke="#f46d43" stroke-width="2" opacity="1"/>
		<line x1="9" y1="43" x2="95" y2="43" stroke="#f46d43" stroke-width="1"/>
	</g>
	<text x="26" y="35.75" fill="#000000" font-family="Verdana" font-size="12">ARTICLE</text>
	<text x="14" y="60.8" fill="#000000" font-family="Verdana" font-size="12">Code_article</text>
	<line x1="14" y1="63" x2="90" y2="63" stroke="#000000" stroke-width="1"/>
	<text x="14" y="77.8" fill="#000000" font-family="Verdana" font-size="12">Nom</text>
	<text x="14" y="94.8" fill="#000000" font-family="Verdana" font-size="12">Quantité</text>
</g>

<!-- Entity UTILISATEUR -->
<g>
	<g>
		<rect x="253" y="9" width="110" height="25" fill="#fdae61" stroke="none" stroke-width="0" opacity="1"/>
		<rect x="253" y="34" width="110" height="77" fill="#fee08b" stroke="none" stroke-width="0" opacity="1"/>
		<rect x="253" y="9" width="110" height="102" fill="none" stroke="#f46d43" stroke-width="2" opacity="1"/>
		<line x1="253" y1="34" x2="363" y2="34" stroke="#f46d43" stroke-width="1"/>
	</g>
	<text x="267" y="26.75" fill="#000000" font-family="Verdana" font-size="12">UTILISATEUR</text>
	<text x="258" y="51.8" fill="#000000" font-family="Verdana" font-size="12">Code_utilisateur</text>
	<line x1="258" y1="54" x2="357" y2="54" stroke="#000000" stroke-width="1"/>
	<text x="258" y="68.8" fill="#000000" font-family="Verdana" font-size="12">Nom</text>
	<text x="258" y="85.8" fill="#000000" font-family="Verdana" font-size="12">Prénom</text>
	<text x="258" y="102.8" fill="#000000" font-family="Verdana" font-size="12">email</text>
</g>

<!-- Entity EVENEMENT -->
<g>
	<g>
		<rect x="108" y="136" width="116" height="25" fill="#fdae61" stroke="none" stroke-width="0" opacity="1"/>
		<rect x="108" y="161" width="116" height="93" fill="#fee08b" stroke="none" stroke-width="0" opacity="1"/>
		<rect x="108" y="136" width="116" height="118" fill="none" stroke="#f46d43" stroke-width="2" opacity="1"/>
		<line x1="108" y1="161" x2="224" y2="161" stroke="#f46d43" stroke-width="1"/>
	</g>
	<text x="129" y="153.75" fill="#000000" font-family="Verdana" font-size="12">EVENEMENT</text>
	<text x="113" y="178.8" fill="#000000" font-family="Verdana" font-size="12">Code_evenement</text>
	<line x1="113" y1="181" x2="219" y2="181" stroke="#000000" stroke-width="1"/>
	<text x="113" y="195.8" fill="#000000" font-family="Verdana" font-size="12">Nom</text>
	<text x="113" y="212.8" fill="#000000" font-family="Verdana" font-size="12">Lieu</text>
	<text x="113" y="229.8" fill="#000000" font-family="Verdana" font-size="12">Date</text>
	<text x="113" y="246.8" fill="#000000" font-family="Verdana" font-size="12">Description</text>
</g>
</svg>